<mxfile host="app.diagrams.net" modified="2022-02-24T16:22:17.724Z" agent="5.0 (Windows NT 10.0; Win64; x64) AppleWebKit/537.36 (KHTML, like Gecko) Chrome/98.0.4758.102 Safari/537.36" etag="fkN0ZSuOOhELNhOMtxB-" version="16.5.3" type="github">
  <diagram id="zlLOG9Or9L5P5_C0e8p-" name="Page-1">
    <mxGraphModel dx="1038" dy="491" grid="0" gridSize="10" guides="1" tooltips="1" connect="1" arrows="1" fold="1" page="1" pageScale="1" pageWidth="827" pageHeight="1169" math="0" shadow="0">
      <root>
        <mxCell id="0" />
        <mxCell id="1" parent="0" />
        <mxCell id="uXigqeA88bS2lWBblAKE-9" style="rounded=0;orthogonalLoop=1;jettySize=auto;html=1;exitX=0;exitY=1;exitDx=0;exitDy=0;entryX=0.5;entryY=0;entryDx=0;entryDy=0;" edge="1" parent="1" source="uXigqeA88bS2lWBblAKE-1" target="uXigqeA88bS2lWBblAKE-2">
          <mxGeometry relative="1" as="geometry" />
        </mxCell>
        <mxCell id="uXigqeA88bS2lWBblAKE-10" style="edgeStyle=none;rounded=0;orthogonalLoop=1;jettySize=auto;html=1;exitX=0.5;exitY=1;exitDx=0;exitDy=0;entryX=0.5;entryY=0;entryDx=0;entryDy=0;" edge="1" parent="1" source="uXigqeA88bS2lWBblAKE-1" target="uXigqeA88bS2lWBblAKE-3">
          <mxGeometry relative="1" as="geometry" />
        </mxCell>
        <mxCell id="uXigqeA88bS2lWBblAKE-11" style="edgeStyle=none;rounded=0;orthogonalLoop=1;jettySize=auto;html=1;exitX=1;exitY=1;exitDx=0;exitDy=0;entryX=0.5;entryY=0;entryDx=0;entryDy=0;" edge="1" parent="1" source="uXigqeA88bS2lWBblAKE-1" target="uXigqeA88bS2lWBblAKE-4">
          <mxGeometry relative="1" as="geometry" />
        </mxCell>
        <mxCell id="uXigqeA88bS2lWBblAKE-1" value="" style="ellipse;whiteSpace=wrap;html=1;" vertex="1" parent="1">
          <mxGeometry x="344" y="75" width="29" height="30" as="geometry" />
        </mxCell>
        <mxCell id="uXigqeA88bS2lWBblAKE-12" style="edgeStyle=none;rounded=0;orthogonalLoop=1;jettySize=auto;html=1;exitX=0;exitY=1;exitDx=0;exitDy=0;entryX=0.5;entryY=0;entryDx=0;entryDy=0;" edge="1" parent="1" source="uXigqeA88bS2lWBblAKE-2" target="uXigqeA88bS2lWBblAKE-6">
          <mxGeometry relative="1" as="geometry" />
        </mxCell>
        <mxCell id="uXigqeA88bS2lWBblAKE-13" style="edgeStyle=none;rounded=0;orthogonalLoop=1;jettySize=auto;html=1;exitX=1;exitY=1;exitDx=0;exitDy=0;entryX=0.5;entryY=0;entryDx=0;entryDy=0;" edge="1" parent="1" source="uXigqeA88bS2lWBblAKE-2" target="uXigqeA88bS2lWBblAKE-7">
          <mxGeometry relative="1" as="geometry" />
        </mxCell>
        <mxCell id="uXigqeA88bS2lWBblAKE-2" value="" style="ellipse;whiteSpace=wrap;html=1;" vertex="1" parent="1">
          <mxGeometry x="236" y="151" width="29" height="30" as="geometry" />
        </mxCell>
        <mxCell id="uXigqeA88bS2lWBblAKE-3" value="" style="ellipse;whiteSpace=wrap;html=1;" vertex="1" parent="1">
          <mxGeometry x="338" y="151" width="29" height="30" as="geometry" />
        </mxCell>
        <mxCell id="uXigqeA88bS2lWBblAKE-15" style="edgeStyle=none;rounded=0;orthogonalLoop=1;jettySize=auto;html=1;exitX=0;exitY=1;exitDx=0;exitDy=0;" edge="1" parent="1" source="uXigqeA88bS2lWBblAKE-4" target="uXigqeA88bS2lWBblAKE-5">
          <mxGeometry relative="1" as="geometry" />
        </mxCell>
        <mxCell id="uXigqeA88bS2lWBblAKE-4" value="" style="ellipse;whiteSpace=wrap;html=1;" vertex="1" parent="1">
          <mxGeometry x="443" y="151" width="29" height="30" as="geometry" />
        </mxCell>
        <mxCell id="uXigqeA88bS2lWBblAKE-5" value="" style="ellipse;whiteSpace=wrap;html=1;" vertex="1" parent="1">
          <mxGeometry x="406" y="220" width="29" height="30" as="geometry" />
        </mxCell>
        <mxCell id="uXigqeA88bS2lWBblAKE-6" value="" style="ellipse;whiteSpace=wrap;html=1;" vertex="1" parent="1">
          <mxGeometry x="188" y="218" width="29" height="30" as="geometry" />
        </mxCell>
        <mxCell id="uXigqeA88bS2lWBblAKE-14" style="edgeStyle=none;rounded=0;orthogonalLoop=1;jettySize=auto;html=1;exitX=0.5;exitY=1;exitDx=0;exitDy=0;" edge="1" parent="1" source="uXigqeA88bS2lWBblAKE-7" target="uXigqeA88bS2lWBblAKE-8">
          <mxGeometry relative="1" as="geometry" />
        </mxCell>
        <mxCell id="uXigqeA88bS2lWBblAKE-7" value="" style="ellipse;whiteSpace=wrap;html=1;" vertex="1" parent="1">
          <mxGeometry x="274" y="220" width="29" height="30" as="geometry" />
        </mxCell>
        <mxCell id="uXigqeA88bS2lWBblAKE-8" value="" style="ellipse;whiteSpace=wrap;html=1;" vertex="1" parent="1">
          <mxGeometry x="228" y="293" width="29" height="30" as="geometry" />
        </mxCell>
        <mxCell id="uXigqeA88bS2lWBblAKE-16" value="B3" style="text;html=1;strokeColor=none;fillColor=none;align=center;verticalAlign=middle;whiteSpace=wrap;rounded=0;" vertex="1" parent="1">
          <mxGeometry x="328.5" y="75" width="60" height="30" as="geometry" />
        </mxCell>
        <mxCell id="uXigqeA88bS2lWBblAKE-17" value="B2" style="text;html=1;strokeColor=none;fillColor=none;align=center;verticalAlign=middle;whiteSpace=wrap;rounded=0;" vertex="1" parent="1">
          <mxGeometry x="220.5" y="154" width="60" height="30" as="geometry" />
        </mxCell>
        <mxCell id="uXigqeA88bS2lWBblAKE-18" value="B0" style="text;html=1;strokeColor=none;fillColor=none;align=center;verticalAlign=middle;whiteSpace=wrap;rounded=0;" vertex="1" parent="1">
          <mxGeometry x="322.5" y="151" width="60" height="30" as="geometry" />
        </mxCell>
        <mxCell id="uXigqeA88bS2lWBblAKE-19" value="B1" style="text;html=1;strokeColor=none;fillColor=none;align=center;verticalAlign=middle;whiteSpace=wrap;rounded=0;" vertex="1" parent="1">
          <mxGeometry x="427.5" y="151" width="60" height="30" as="geometry" />
        </mxCell>
        <mxCell id="uXigqeA88bS2lWBblAKE-20" value="B0" style="text;html=1;strokeColor=none;fillColor=none;align=center;verticalAlign=middle;whiteSpace=wrap;rounded=0;" vertex="1" parent="1">
          <mxGeometry x="390.5" y="220" width="60" height="30" as="geometry" />
        </mxCell>
        <mxCell id="uXigqeA88bS2lWBblAKE-21" value="B0" style="text;html=1;strokeColor=none;fillColor=none;align=center;verticalAlign=middle;whiteSpace=wrap;rounded=0;" vertex="1" parent="1">
          <mxGeometry x="172.5" y="218" width="60" height="30" as="geometry" />
        </mxCell>
        <mxCell id="uXigqeA88bS2lWBblAKE-22" value="B0" style="text;html=1;strokeColor=none;fillColor=none;align=center;verticalAlign=middle;whiteSpace=wrap;rounded=0;" vertex="1" parent="1">
          <mxGeometry x="212.5" y="295" width="60" height="30" as="geometry" />
        </mxCell>
        <mxCell id="uXigqeA88bS2lWBblAKE-23" value="B1" style="text;html=1;strokeColor=none;fillColor=none;align=center;verticalAlign=middle;whiteSpace=wrap;rounded=0;" vertex="1" parent="1">
          <mxGeometry x="258.5" y="220" width="60" height="30" as="geometry" />
        </mxCell>
      </root>
    </mxGraphModel>
  </diagram>
</mxfile>
